# xmcd
#
# Track frame offsets: 
#        150
#        11900
#        25702
#        41715
#        55755
#        70930
#        85425
#        100625
#        113917
#        129652
#        142390
#        161002
#
# Disc length: 2349 seconds
#
# Revision: 5
# Processed by: cddbd v1.5PL3 Copyright (c) Steve Scherf et al.
# Submitted via: ExactAudioCopy v0.95a3
#
DISCID=a8092b0c
DTITLE=Randy Travis - A Man Ain't Made Of Stone
DYEAR=1999
DGENRE=Country
TTITLE0=A Little Bitty Crack In Her Heart
TTITLE1=A Little Left Of Center
TTITLE2=A Man Ain't Made Of Stone
TTITLE3=The Family Bible And The Farmers Almanac
TTITLE4=A Heartache In The Works
TTITLE5=No Reason To Change
TTITLE6=Where Can I Surrender
TTITLE7=I'll Be Right Here Loving You
TTITLE8=Once You've Heard The Truth
TTITLE9=In A Heart Like Mine
TTITLE10=Day One
TTITLE11=Thirteen Mile Goodbye
EXTD=YEAR: 1999 ID3G: 2
EXTT0=
EXTT1=
EXTT2=
EXTT3=
EXTT4=
EXTT5=
EXTT6=
EXTT7=
EXTT8=
EXTT9=
EXTT10=
EXTT11=
PLAYORDER=
